# xmcd CD database file
#
# Track frame offsets:
#	150
#	44484
#	61225
#	79034
#	94077
#	112535
#	130157
#	147575
#	170677
#	205454
#
# Disc length: 2983 seconds
#
# Revision: 2
# Processed by: cddbd v1.4PL0 Copyright (c) Steve Scherf et al.
# Submitted via: CDex 1.40Beta9
#
DISCID=890ba50a
DTITLE=Chambers Brothers - Chambers Brothers - '65 Live
DYEAR=1965
DGENRE=Blues
TTITLE0=Time Has Come Today
TTITLE1=Sympathy For The Devil
TTITLE2=I Have The Feeling
TTITLE3=You're So Fine
TTITLE4=People Get Ready
TTITLE5=Please, Please, Please
TTITLE6=Mustang Sally
TTITLE7=Boogie Chillun'
TTITLE8=High Heel Sneakers
TTITLE9=We The Pople
EXTD=YEAR: 1965 ID3G: 0
EXTT0=
EXTT1=
EXTT2=
EXTT3=
EXTT4=
EXTT5=
EXTT6=
EXTT7=
EXTT8=
EXTT9=
PLAYORDER=
